# xmcd
#
# Track frame offsets:
# 150
# 15321
# 29669
# 42779
# 53447
# 63974
# 77907
# 94518
# 105039
# 120626
# 132070
# 144892
# 157463
# 170164
#
# Disc length: 2459 seconds
#
#
# Revision: 0
# Processed by: cddbd v1.5.2PL0 Copyright (c) Steve Scherf et al.
# Submitted via: FreeRIP 2.96 
#
DISCID=a909990e
DTITLE=Edson and Hudson - acustico ao vivo
DYEAR=2007
DGENRE=Sertanojo
TTITLE0=Viva A Vida
TTITLE1=As Andorinhas
TTITLE2=Bicho Bom é Mulher
TTITLE3=Do Mundo Nada Se Leva
TTITLE4=O Doutor E A Empregada
TTITLE5=Viola Esta Chorando
TTITLE6=Vá Pro Inferno Com Seu Amor
TTITLE7=Quebradas Da Noite
TTITLE8=Blusa Vermelha
TTITLE9=Estrada Da Vida
TTITLE10=Ainda Ontem Chorei De Saudade
TTITLE11=Saudade Da Minha Terra
TTITLE12=Bobeou A Gente Pinba
TTITLE13=Pot-Pourri: Pagode Em Brasília /Pagode/A Coisa Tá
EXTD=Essa é Do Gallo
EXTT0=
EXTT1=
EXTT2=
EXTT3=
EXTT4=
EXTT5=
EXTT6=
EXTT7=
EXTT8=
EXTT9=
EXTT10=
EXTT11=
EXTT12=
EXTT13=
PLAYORDER=
